<svg id="curves" xmlns="http://www.w3.org/2000/svg" viewBox="0 0 911.13 924.15"><defs><style>.cls-1,.cls-2,.cls-3{fill:none;}.cls-1,.cls-2{stroke:#fff;stroke-miterlimit:10;}.cls-1{stroke-width:20px;}.cls-2{stroke-width:13px;}</style></defs><title>Face</title><path class="cls-1" d="M422.16,604.15c124.44-71.29,101.36-143.59,89-176.07C545.8,307,521.57,262.39,481,223s-97.39-73.71-191.77-73.71S138,183.51,97.49,223,32.72,307,67.37,428.08c-12.37,32.48-35.45,104.78,89,176.07,46.1,56.31,98.69,109,132.9,109S376.06,660.46,422.16,604.15Z" transform="translate(161.06)"/><path class="cls-2" d="M124.17,484.69c20.29,43.7,43.47,61.72,66.25,67.79s45.18.19,56.5-13,11.56-33.67,3.44-47.86-24.64-22.06-45.9-25.1S157.17,465.27,124.17,484.69Z" transform="translate(161.06)"/><path class="cls-2" d="M454.35,484.69c-20.29,43.7-43.47,61.72-66.25,67.79s-45.18.19-56.5-13-11.57-33.67-3.44-47.86,24.64-22.06,45.9-25.1S421.35,465.27,454.35,484.69Z" transform="translate(161.06)"/><rect class="cls-3" width="911.13" height="924.15"/></svg>